<?xml version="1.0" standalone="no"?>
<!DOCTYPE svg PUBLIC "-//W3C//DTD SVG 20010904//EN"
 "http://www.w3.org/TR/2001/REC-SVG-20010904/DTD/svg10.dtd">
<svg version="1.0" xmlns="http://www.w3.org/2000/svg"
 width="482.000000pt" height="482.000000pt" viewBox="0 0 482.000000 482.000000"
 preserveAspectRatio="xMidYMid meet">
<metadata>
Created by potrace 1.14, written by Peter Selinger 2001-2017
</metadata>
<g transform="translate(0.000000,482.000000) scale(0.100000,-0.100000)"
fill="#000000" stroke="none">
<path d="M250 3474 c0 -8 14 -70 31 -137 17 -67 32 -129 34 -137 2 -8 15 -62
30 -120 15 -58 29 -113 31 -123 2 -10 6 -27 9 -37 3 -10 7 -27 9 -37 2 -10 16
-65 31 -123 15 -58 28 -112 30 -120 2 -8 24 -98 50 -200 26 -102 48 -192 50
-200 2 -8 15 -62 30 -120 15 -58 28 -112 30 -120 2 -8 15 -62 30 -120 15 -58
28 -112 30 -120 2 -8 15 -62 30 -120 15 -58 29 -114 31 -125 14 -72 51 -189
60 -192 5 -2 43 41 83 96 40 55 78 104 85 110 9 7 16 -4 30 -42 41 -120 62
-167 71 -164 6 1 129 240 275 530 l265 527 265 -527 c146 -290 270 -529 275
-530 6 -2 28 47 51 109 l41 112 82 -110 c45 -60 88 -109 94 -109 10 0 32 68
53 163 2 13 48 193 100 400 53 208 98 385 100 395 2 10 6 27 9 37 3 10 7 27
10 37 2 10 64 263 139 563 75 300 136 551 136 558 0 37 -21 -4 -73 -140 -32
-84 -60 -160 -62 -168 -5 -20 -223 -599 -235 -625 -9 -21 -344 -920 -352 -945
-3 -9 -128 151 -312 395 -169 226 -313 410 -321 410 -8 0 -152 -184 -321 -409
l-307 -409 -12 34 c-30 82 -57 156 -65 174 -5 11 -39 101 -75 200 -37 99 -77
207 -90 240 -13 33 -47 123 -75 200 -29 77 -67 178 -85 225 -18 47 -95 253
-171 457 -76 205 -142 373 -146 373 -5 0 -8 -7 -8 -16z"/>
<path d="M4460 3468 c-47 -9 -98 -20 -115 -22 -16 -3 -178 -35 -360 -71 -181
-36 -343 -68 -360 -70 -44 -8 -223 -43 -275 -55 -25 -5 -61 -12 -80 -15 -30
-5 -63 -22 -50 -26 3 -1 239 -3 525 -4 286 -1 520 -3 521 -4 0 0 -174 -178
-388 -393 -213 -216 -388 -397 -388 -403 0 -5 175 -187 388 -402 214 -216 384
-394 378 -394 -6 -1 -238 -2 -516 -3 -327 -1 -506 -5 -507 -11 -3 -10 24 -20
80 -29 18 -2 79 -14 137 -25 58 -12 115 -23 127 -25 13 -3 58 -12 100 -20 43
-9 90 -18 106 -20 15 -3 35 -7 45 -10 9 -3 33 -7 52 -10 35 -6 62 -11 110 -21
14 -3 34 -7 45 -9 11 -2 115 -22 230 -45 199 -39 226 -45 276 -56 37 -8 17 21
-98 139 -62 63 -113 116 -113 118 0 2 54 4 120 3 81 -1 121 3 124 10 2 6 -235
190 -526 409 -456 342 -528 400 -516 412 7 8 131 101 273 208 143 107 265 198
270 203 6 5 120 91 255 192 135 101 245 189 245 195 0 7 -37 11 -115 12 -63 1
-119 2 -125 3 -5 0 44 55 110 121 70 71 115 123 110 128 -6 4 -48 0 -95 -10z"/>
</g>
</svg>
