<svg xmlns="http://www.w3.org/2000/svg" viewBox="0 0 433.52 216.92"><defs><style>.cls-2{fill:none;stroke:#231815;stroke-miterlimit:10;stroke-width:2px}</style></defs><path fill="#231815" d="m405.24 189.32 25.88 26.1-133.19-26.1h107.31zm27.68 0h-27.68l-80.31-80.99 107.99 80.99zm0-161.98-107.99 80.99 80.32-80.99h27.67zm-1.8-26.09-25.87 26.09H297.93L431.12 1.25zM270.94.35l-54 215.97-17.99-23.99L270.94.35zm-71.99 191.98-9 23.99-54-107.99 63 84zm-63-84L81.96 216.32l-9-24 62.99-83.99zM.97.35l71.99 191.97-18 24L.97.35z"/><path d="m324.93 108.33 80.32-80.99 25.87-26.09M324.93 108.33l107.99 80.99m0-161.98-107.99 80.99m106.19 107.09-25.88-26.1-80.31-80.99M431.12 1.25 297.93 27.34m0 161.98 133.19 26.1m-349.16.9-9-24L.97.35m269.97 0-54 215.97M.97.35l53.99 215.97M270.94.35l-71.99 191.98-9 23.99m-107.99 0 53.99-107.99m54 107.99-54-107.99" class="cls-2"/><path d="m54.96 216.32 18-24 62.99-83.99" class="cls-2"/><path d="m216.94 216.32-17.99-23.99-63-84m296.97-80.99H297.93m0 161.98h134.99" class="cls-2"/></svg>